<?xml version="1.0" encoding="utf-8"?>
<!-- Generator: Adobe Illustrator 25.1.0, SVG Export Plug-In . SVG Version: 6.00 Build 0)  -->
<svg version="1.1" id="Layer_1" xmlns="http://www.w3.org/2000/svg" xmlns:xlink="http://www.w3.org/1999/xlink" x="0px" y="0px"
	 viewBox="0 0 1024 1024" style="enable-background:new 0 0 1024 1024;" xml:space="preserve">
<style type="text/css">
	.st0{fill:#282B3A;}
	.st1{fill:#3FA9F5;}
	.st2{fill:#1696F0;}
	.st3{fill:#37BBF7;}
	.st4{fill:#79BFF2;}
</style>
<g>
	<path class="st0" d="M919.5,236.8L552.5,32c-25.6-12.8-55.5-12.8-78.9,0L104.5,236.8c-25.6,14.9-42.7,42.7-42.7,70.4v407.5
		c0,29.9,17.1,57.6,42.7,70.4l366.9,204.8c25.6,12.8,55.5,12.8,78.9,0l366.9-204.8c25.6-14.9,42.7-42.7,42.7-70.4V309.3
		C962.1,279.5,945.1,251.7,919.5,236.8z"/>
	<path class="st1" d="M644.3,426.7l-121.6-68.3c-6.4-4.3-12.8-4.3-19.2,0l-123.7,68.3c-6.4,4.3-10.7,10.7-10.7,17.1v136.5
		c0,6.4,4.3,14.9,10.7,17.1l121.6,68.3c6.4,4.3,12.8,4.3,19.2,0l121.6-68.3c6.4-4.3,10.7-10.7,10.7-17.1V443.7
		C654.9,437.3,650.7,428.8,644.3,426.7z"/>
	<path class="st2" d="M307.2,627.2v-23.5V435.2l-121.6-68.3v302.9c0,14.9,8.5,27.7,21.3,36.3l275.2,153.6V723.2L307.2,627.2z"/>
	<path class="st3" d="M531.2,157.9c-12.8-6.4-27.7-6.4-40.5,0L213.3,313.6l123.7,68.3L512,283.7l170.7,96l121.6-68.3L531.2,157.9z"
		/>
	<path class="st4" d="M716.8,430.9v170.7v23.5L544,723.2v136.5l275.2-153.6c12.8-6.4,21.3-21.3,21.3-36.3V360.5L716.8,430.9z"/>
</g>
</svg>
