<?xml version="1.0" encoding="utf-8"?>
<!-- Generator: Adobe Illustrator 25.1.0, SVG Export Plug-In . SVG Version: 6.00 Build 0)  -->
<svg version="1.1" id="Layer_1" xmlns="http://www.w3.org/2000/svg" xmlns:xlink="http://www.w3.org/1999/xlink" x="0px" y="0px"
	 viewBox="0 0 1024 1024" style="enable-background:new 0 0 1024 1024;" xml:space="preserve">
<style type="text/css">
	.st0{fill:#152C53;}
	.st1{fill:#194073;}
	.st2{fill:#025291;}
</style>
<path class="st0" d="M87.5,337.1l396.8,213.3c17.1,8.5,38.4,8.5,55.5,0l396.8-213.3c34.1-21.3,34.1-72.5,0-93.9L539.7,29.9
	c-17.1-8.5-38.4-8.5-55.5,0L87.5,243.2C51.2,262.4,51.2,313.6,87.5,337.1z"/>
<path class="st1" d="M936.5,465.1l-68.3-36.3L537.6,605.9c-17.1,8.5-38.4,8.5-55.5,0L155.7,428.8l-68.3,36.3
	c-34.1,21.3-34.1,72.5,0,93.9l396.8,213.3c17.1,8.5,38.4,8.5,55.5,0l396.8-213.3C972.8,537.6,972.8,486.4,936.5,465.1z"/>
<path class="st2" d="M936.5,686.9l-68.3-36.3L537.6,827.7c-17.1,8.5-38.4,8.5-55.5,0L155.7,650.7l-68.3,36.3
	c-34.1,21.3-34.1,72.5,0,93.9l396.8,213.3c17.1,8.5,38.4,8.5,55.5,0l396.8-213.3C972.8,761.6,972.8,710.4,936.5,686.9z"/>
</svg>
